<svg width="160" height="160" viewBox="0 0 160 160" fill="none" xmlns="http://www.w3.org/2000/svg">
<path d="M79.7001 130.6C107.7 130.6 130.4 107.9 130.4 79.8C130.4 51.7 107.6 29 79.7001 29C51.7001 29 29.0001 51.7 29.0001 79.8C29.0001 107.9 51.7001 130.6 79.7001 130.6Z" fill="#F5F6FA"/>
<g filter="url(#filter0_dd_6006_1051)">
<path d="M114.2 54.4001L115 118.8C115 121 113.2 122.7 111 122.7H48.2001C46.0001 122.7 44.2001 120.9 44.2001 118.8V36.0001C44.2001 33.8001 46.0001 32.1001 48.2001 32.1001H93.7001L114.2 54.4001Z" fill="white"/>
</g>
<path d="M74.8002 109.8H72.5002C72.0002 109.8 71.6002 109.3 71.6002 108.7C71.6002 108.1 72.0002 107.6 72.5002 107.6H74.8002C75.3002 107.6 75.7002 108.1 75.7002 108.7C75.7002 109.4 75.3002 109.8 74.8002 109.8Z" fill="#D5DAE5"/>
<path d="M67.8001 109.8H54.4001C53.9001 109.8 53.5001 109.3 53.5001 108.7C53.5001 108.1 53.9001 107.6 54.4001 107.6H67.8001C68.3001 107.6 68.7001 108.1 68.7001 108.7C68.7001 109.4 68.3001 109.8 67.8001 109.8Z" fill="#D5DAE5"/>
<path d="M84.9001 45.6H54.8001C54.1001 45.6 53.5001 45 53.5001 44.3C53.5001 43.6 54.1001 43 54.8001 43H84.9001C85.6001 43 86.2001 43.6 86.2001 44.3C86.2001 45 85.6001 45.6 84.9001 45.6Z" fill="#D5DAE5"/>
<path d="M66.4001 52.8002H54.8001C54.1001 52.8002 53.5001 52.2002 53.5001 51.5002C53.5001 50.8002 54.1001 50.2002 54.8001 50.2002H66.3001C67.0001 50.2002 67.6001 50.8002 67.6001 51.5002C67.6001 52.2002 67.0001 52.8002 66.4001 52.8002Z" fill="#D5DAE5"/>
<path d="M93.7001 32.1001V49.9001C93.7001 52.4001 95.9001 54.4001 98.4001 54.4001H114.2" fill="#D5DAE5"/>
<path d="M119 124.2C118 124.2 117 123.8 116.2 122.9L99.5 106.2L98.9 106.6C93.5 110.6 87.2 112.7 80.8 112.7C73.1 112.7 65.4 109.6 59.7 104.2C53.7 98.5001 50.4 90.8001 50.4 82.4001C50.4 65.7001 64 52.1001 80.7 52.1001C92.1 52.1001 102.1 58.1001 107.5 68.3001C112.8 78.4001 112.1 90.2001 105.6 99.7001L105.2 100.3L122 117.1C123.7 118.8 123.3 120.5 123 121.4C122.2 123 120.6 124.2 119 124.2ZM80.7 60.4001C68.5 60.4001 58.7 70.3001 58.7 82.4001C58.7 96.2001 70 104.5 81 104.5C87.7 104.5 93.8 101.5 98.1 96.1001C103.4 89.5001 104.3 80.6001 100.6 72.9001C96.8 65.2001 89.2 60.4001 80.7 60.4001Z" fill="#989FB0"/>
<path d="M71.1999 86.0002C72.4999 86.0002 73.5999 84.9002 73.5999 83.6002C73.5999 82.3002 72.4999 81.2002 71.1999 81.2002C69.8999 81.2002 68.7999 82.3002 68.7999 83.6002C68.7999 84.9002 69.8999 86.0002 71.1999 86.0002Z" fill="#989FB0"/>
<path d="M89.6001 86.0002C90.9001 86.0002 92.0001 84.9002 92.0001 83.6002C92.0001 82.3002 90.9001 81.2002 89.6001 81.2002C88.3001 81.2002 87.2001 82.3002 87.2001 83.6002C87.2001 85.0002 88.3001 86.0002 89.6001 86.0002Z" fill="#989FB0"/>
<path d="M71.1062 75.6602L65.8268 78.5107L66.5394 79.8306L71.8188 76.98L71.1062 75.6602Z" fill="#989FB0"/>
<path d="M89.2737 75.6219L88.5612 76.9419L93.8412 79.7919L94.5537 78.4719L89.2737 75.6219Z" fill="#989FB0"/>
<path d="M80.4 91.5999C81.9464 91.5999 83.2 90.6597 83.2 89.4999C83.2 88.3401 81.9464 87.3999 80.4 87.3999C78.8536 87.3999 77.6 88.3401 77.6 89.4999C77.6 90.6597 78.8536 91.5999 80.4 91.5999Z" fill="#989FB0"/>
<defs>
<filter id="filter0_dd_6006_1051" x="35.2001" y="27.1001" width="88.8" height="108.6" filterUnits="userSpaceOnUse" color-interpolation-filters="sRGB">
<feFlood flood-opacity="0" result="BackgroundImageFix"/>
<feColorMatrix in="SourceAlpha" type="matrix" values="0 0 0 0 0 0 0 0 0 0 0 0 0 0 0 0 0 0 127 0" result="hardAlpha"/>
<feOffset dy="4"/>
<feGaussianBlur stdDeviation="4.5"/>
<feColorMatrix type="matrix" values="0 0 0 0 0.397708 0 0 0 0 0.47749 0 0 0 0 0.575 0 0 0 0.15 0"/>
<feBlend mode="normal" in2="BackgroundImageFix" result="effect1_dropShadow_6006_1051"/>
<feColorMatrix in="SourceAlpha" type="matrix" values="0 0 0 0 0 0 0 0 0 0 0 0 0 0 0 0 0 0 127 0" result="hardAlpha"/>
<feOffset dy="1"/>
<feGaussianBlur stdDeviation="0.5"/>
<feComposite in2="hardAlpha" operator="out"/>
<feColorMatrix type="matrix" values="0 0 0 0 0 0 0 0 0 0 0 0 0 0 0 0 0 0 0.03 0"/>
<feBlend mode="normal" in2="effect1_dropShadow_6006_1051" result="effect2_dropShadow_6006_1051"/>
<feBlend mode="normal" in="SourceGraphic" in2="effect2_dropShadow_6006_1051" result="shape"/>
</filter>
</defs>
</svg>
