<svg width="32" height="39" viewBox="0 0 32 39" fill="none" xmlns="http://www.w3.org/2000/svg">
<path d="M14.71 1.26172C16.1517 2.26621 17.439 3.48033 18.5273 4.86719L18.5283 4.86816C18.8873 5.3239 19.2272 5.80558 19.5107 6.22363L20.1562 7.19629C21.4653 9.3105 22.197 11.7313 22.2793 14.2168L22.3174 15.3574L23.1299 14.5557C23.9294 13.7673 24.5541 12.8196 24.9619 11.7734L24.9727 11.7461L24.9795 11.7178C25.1182 11.1854 25.2057 10.6426 25.2471 10.0967L26.0156 11.3965C26.9947 13.1906 28.2056 15.6216 29.1719 18.2256C30.1433 20.8435 30.8545 23.6024 30.8545 26.0498C30.8545 31.4893 28.156 34.5168 25.4502 36.208C24.3071 36.9224 23.1663 37.395 22.2217 37.7061C23.0608 36.682 23.8305 35.0503 23.8887 32.5146C23.9389 30.3191 23.0737 28.0277 22.2295 26.3203C21.8038 25.4593 21.3759 24.7309 21.0537 24.2178C20.8925 23.9611 20.7574 23.7574 20.6621 23.6172C20.6146 23.5473 20.5769 23.4932 20.5508 23.4561C20.5378 23.4376 20.5276 23.423 20.5205 23.4131C20.517 23.4081 20.5137 23.4041 20.5117 23.4014C20.5109 23.4002 20.5103 23.3992 20.5098 23.3984L20.5088 23.3975V23.3965L19.6084 23.7627C19.6808 24.2538 19.655 24.7541 19.5342 25.2354C19.5248 25.2587 19.5148 25.2816 19.5049 25.3047C19.32 24.4291 18.9819 23.5893 18.501 22.8262L18.5 22.8252L18.3262 22.5586C17.4389 21.2399 16.2874 20.1183 14.9434 19.2656L14.0635 18.707L14.1777 19.7432C14.302 20.8622 14.2675 21.993 14.0762 23.1025C13.7246 24.6518 12.8831 26.0464 11.6748 27.0781L11.6582 27.0918L11.6436 27.1074C11.4006 27.3537 10.9058 27.8477 10.4258 28.3447C9.97109 28.8155 9.49619 29.3238 9.26367 29.6328C8.71088 30.277 8.30397 31.0333 8.07129 31.8496C7.8405 32.6594 7.78694 33.5094 7.91309 34.3418V34.3428C7.99919 35.0988 8.34411 36.1182 8.91895 37.0381C9.12836 37.3732 9.3738 37.703 9.65527 38.0059C8.21707 37.7575 6.24806 37.2604 4.50586 36.2842C2.52942 35.1767 0.892474 33.4845 0.583984 30.8662C0.332277 28.7324 0.663767 27.1609 1.33105 25.7666C2.00986 24.3483 3.03818 23.0996 4.24219 21.5967L4.24316 21.5977C5.2982 20.2894 5.4201 18.6956 5.29395 17.46C5.2554 17.0826 5.19154 16.7314 5.12207 16.4219C5.3264 16.5542 5.5471 16.702 5.77246 16.8613C6.20297 17.1658 6.64238 17.5063 7.01562 17.8535C7.34761 18.1623 7.60595 18.4565 7.76465 18.7188L7.82617 18.8291L7.83203 18.8398C8.20562 19.5229 8.50505 20.2443 8.72461 20.9912L9.7002 20.7871V20.7852C9.69996 20.7832 9.69973 20.7798 9.69922 20.7754C9.69816 20.7663 9.69636 20.7523 9.69434 20.7334C9.69021 20.6949 9.6843 20.636 9.67773 20.5596C9.66461 20.4067 9.64811 20.1818 9.6377 19.8994C9.61685 19.3338 9.61851 18.5403 9.70703 17.6338C9.88512 15.8104 10.4112 13.5817 11.7676 11.8125C13.2026 9.94075 14.0999 8.68345 14.6416 7.64355C15.1975 6.57635 15.3808 5.7351 15.4121 4.70703L15.4131 4.68066L15.4111 4.65527C15.3256 3.49625 15.0869 2.35635 14.71 1.26172Z" fill="#F3B467" stroke="#D54F4F"/>
</svg>
