<svg width="32" height="32" viewBox="0 0 32 32" fill="none" xmlns="http://www.w3.org/2000/svg">
<path d="M11.5 16L14.5 19L21.25 12.25M9.00065 3.72804C10.2064 3.63182 11.3511 3.15769 12.2717 2.37313C14.4201 0.54229 17.5799 0.54229 19.7283 2.37313C20.6489 3.15769 21.7936 3.63182 22.9993 3.72804C25.8131 3.95258 28.0474 6.18692 28.272 9.00065C28.3682 10.2064 28.8423 11.3511 29.6269 12.2717C31.4577 14.4201 31.4577 17.5799 29.6269 19.7283C28.8423 20.6489 28.3682 21.7936 28.272 22.9993C28.0474 25.8131 25.8131 28.0474 22.9993 28.272C21.7936 28.3682 20.6489 28.8423 19.7283 29.6269C17.5799 31.4577 14.4201 31.4577 12.2717 29.6269C11.3511 28.8423 10.2064 28.3682 9.00065 28.272C6.18692 28.0474 3.95258 25.8131 3.72804 22.9993C3.63182 21.7936 3.15769 20.6489 2.37313 19.7283C0.54229 17.5799 0.54229 14.4201 2.37313 12.2717C3.15769 11.3511 3.63182 10.2064 3.72804 9.00065C3.95258 6.18692 6.18692 3.95258 9.00065 3.72804Z" stroke="#6941C6" stroke-width="2" stroke-linecap="round" stroke-linejoin="round"/>
</svg>
